<svg version="1.2" xmlns="http://www.w3.org/2000/svg" viewBox="0 0 500 500" width="500" height="500">
	<title>logo-svg-svg</title>
	<style>
		.s0 { fill: #f4cf7e } 
	</style>
	<g id="Layer">
	</g>
	<g id="Layer">
		<g id="Layer">
			<path id="Layer" fill-rule="evenodd" class="s0" d="m345.6 380.9l0.9 53.3-39.2 58.2v-84.9h-115.6v84.9q-19.7-29.1-39.2-58.2l0.9-53.3-57.4-63.3 61.3-144.7c5.4-13.4 2.9-28.7 0.3-44.4-2.7-15.8-5.3-32-0.3-47.4 3.7-11.6 11-19.9 18.8-28.6 9.7-11 20.1-22.6 23.9-42.1l2.1-10.4 2.1 10.4c1.8 8.8 3.8 17.6 5.9 26 12 52.3 20.7 89.6-26.2 126.8 22-4.8 38.8 1.3 50.2 8.6v-21.8c-51.6-28.8 14.4-49.1 14.6-49.2l0.9-0.2 0.7 0.2c0.3 0.1 66.2 20.4 14.6 49.2v21.8c11.4-7.3 28.2-13.4 50.2-8.6-46.9-37.2-38.2-74.5-26.1-126.8 2-8.4 4-17.2 5.9-26l2.2-10.4 2 10.4c3.8 19.8 13.9 31 23.6 41.7 7.1 7.9 13.8 15.5 18 26.1 6.5 16.3 3.5 33.5 0.7 50.3-2.6 15.7-5.1 31 0.3 44.4l61.3 144.7zm12.6-135.4l-4.7 4 9.5 22.3 4.8-5.1zm23.8 33l-6.2-14.8-31.8 33.6 0.5 20.7zm-38.6-16.8l0.4 30.2 7.9-8.3zm26.4 86.8l-13.7-37.3-4.8 5 11.3 40.3zm19.4-21.4l-13.6-36.4-6.7 6.9 13.4 37.1zm-79.7-223c4.7 19.1 11.4 31.3 24.8 44.9 0-8.5 1.4-12 3-20.9 2.7-16.4 5.6-33.3-0.6-49.1-3.9-10-10.7-17.4-17.5-25.1-4.7-5.1-7.8-8.9-12-15.1-4.1 25.7-2.7 45.5 2.3 65.3zm28.6 70.5l-0.1-0.3-0.2-0.3c-1.8-4.6-2.8-9.2-3.3-14.1q-23.6-21.8-31.7-53.9-8-32-0.4-74.3c-2.1-3.6-3.8-7.5-5.2-12-1.4 6.1-2.6 11.7-4 17.3-13.4 57.7-22.4 96.8 44.9 137.6zm-99.7 0.2c3.3 2.5 5.8 4.8 7.9 7v-25.8q-4.3-1.8-7.9-3.7zm13.5 8c2.2-2.3 5.1-5.2 8.8-8.1v-22.4q-3.9 2-8.8 4.1zm-28.9-46.3c0.6-3.2 2.4-6.2 4.9-9 5.4-5.9 14.2-10.4 20.6-13l1-0.6 1.1 0.6c6.4 2.6 15.2 7.1 20.6 13 2.5 2.8 4.3 5.8 4.9 9 13.7-18-20.8-30.5-26.6-32.4-5.7 1.9-40.2 14.4-26.5 32.4zm13.7 11l-4.4-2.8q2 1.4 4.4 2.8zm-38.9-40.2c-5.3 21.3-18.3 41.2-33.9 55.6-0.3 5-0.7 6.5-2.6 11.1l-0.3 0.7c67.5-40.9 58.3-80 44.9-137.7-1.4-5.5-2.6-11.2-4-17.2-1.4 4.5-2.1 5.6-4.1 9.4 4.9 28.1 5.3 56.8 0 78.1zm-36 20.9c1.6 8.8 3.2 15.6 3.2 24 13.4-13.4 22-27.6 26.9-46.7 4.8-19.7 4.3-41 0.2-66.7-4.2 6.3-7.8 10.3-12.4 15.5-7.5 8.5-14.8 16.6-18.3 27.6-4.8 14.9-2.2 30.7 0.4 46.3zm-4.8 69.3c44.4-31.9 83.9 5 92.5 14.2 8.7-9.2 48.2-46.1 92.6-14.2 0.5-5.6 0-11.3-2-17.4q-9.8-5.7-17.7-11.4c-46.3-15.6-70.9 20.7-70.9 20.8l-2 2.6-1.9-2.6c0-0.1-24.6-36.4-70.9-20.8q-7.9 5.7-17.7 11.4c-2 6.1-2.5 11.8-2 17.4zm184.5 4.1c-47.5-36.7-90 13.7-90.1 13.9l-1.9 2-1.8-2c-0.1-0.2-42.6-50.6-90.1-13.9 3.3 16.7 16 30.7 28 43.9q2.9 3.2 5.7 6.3c10 11.3 13.8 22.9 15.7 34.1 1.9-5.9 5-10.4 7.7-14.3 4.4-6.5 7.9-11.6 2.9-19.6h0.1l-4.1-7.7c0 0 14.6 4.2 15.8 14.9 1 10-15.3 23.6-18.7 28.9-1.3 4.5-1.9 10-1.1 16.7 1.1 8.9 2.9 16.7 8.2 23 8.5-3.2 20.1-4.8 31.7-4.8 11.7 0 23.3 1.6 31.8 4.8 5.4-6.3 7.1-14.1 8.3-23 0.9-8-0.2-14.3-2-19.4-5.6-6.4-17.5-17.6-16.6-26.2 1.1-10.7 15.8-14.9 15.8-14.9l-5.1 9c0 0-1.9 3.3-2.6 6.8 0.2 3.9 2.6 7.5 5.3 11.5 2.7 3.9 5.8 8.4 7.7 14.2 2-11.1 5.7-22.7 15.7-34q2.8-3.2 5.7-6.3c12-13.2 24.7-27.4 28-43.9zm-149.8 148.5v32.2h51.9zm12.9-51.1c-1.5-12.7-3.1-26.9-12.9-40.5v74l57.8 34.9 57.9-34.9v-74c-9.8 13.6-11.4 27.8-12.8 40.5-2.6 22.2-4.7 40.3-44.7 45.3l-0.4 0.1-0.3-0.1c-39.9-5-42.1-23.1-44.6-45.3zm-49-35.1l-7.8 20.3 7.3 7.7zm-9.5-13.8l-4.7-4.1-9.5 21.3 4.9 5.1zm-29.1 28.5l37.5 39.6 0.4-20.8-31.7-33.5zm-7.3 48.6l6.8 7.5 13.6-36.9-6.7-7zm26.6 29.3l11.3-40.2-4.7-5-13.8 37.3zm19.6-115.6l-16-16.4-4.8 11.4 20.6 17.6zm0.5-28.6c-2.3-5.5-3.9-11.3-4-17.5l-10.9 25.9 14.5 14.8zm0.3 221.3l11.6 17.3v-219.3c-2.8-3.6-5.6-7.4-7.8-11.2zm30.7-180.3q-2.6-2.9-5.3-5.9-2.4-2.6-4.8-5.2v222.1l10.1 14.8zm4.3 151.3h3v-18.9h-3zm7.2-0.1h6.2v-18.8h-6.2zm10.5 0.1h6.2v-19h-6.2zm10.4 0h6.2v-18.9h-6.2zm10.4 0h6.3v-18.9h-6.3zm10.4 0h6.2v-19h-6.2zm10.5-0.1h6.2v-18.8h-6.2zm10.4 0.1h6.2v-19h-6.2zm10.5 0h6.2v-18.9h-6.2zm10.4 0h6.2v-18.9h-6.2zm10.5 0h6.1v-19h-6.1zm10.3-0.1h4.1v-18.8h-4.1zm4.1-54.3l-51.9 32.3h51.9zm4.3 129l9-13.5v-222.4q-1.9 2.1-3.7 4.1-2.7 3-5.3 5.9zm30.6-45.6l-3.9-213.2c-2.4 4.3-5.5 8.3-8.7 12.3v219.6zm0.7-198l14.6-14.9-11-26c-0.2 6.3-1.7 12.1-4 17.7zm0.1 5.2l0.2 12.7 20.8-17.6-4.9-11.4zm16.8 34.1l-0.3 0.4z"/>
			<path id="Layer" fill-rule="evenodd" class="s0" d="m328.4 210v3.2c-8.3-1.4-15.8-1.7-22.3-1.1q-1.3 10.7-10.3 16.5-9 6-25.7 7-1.9 3.9-3.2 8.1c-4.6 15.5-3.6 35.3 2.3 56.6 1.1 1.2 1.6 2.6 1.6 4q-0.1 1.6-1.2 3.2c-2.7 4.6-7.1 7.6-12 9.2-2.7 0.9-5.6 1.3-8.5 1.2-2.9 0-5.7-0.4-8.3-1.4-4.9-1.6-9.2-4.7-11.7-9.3-0.4-1-0.8-1.9-0.9-2.9 0-1.5 0.5-2.9 1.8-4.2 5.9-21.2 6.8-40.9 2.2-56.4q-1.3-4.2-3.2-8.1-16.7-1-25.8-7-9-5.8-10.3-16.5c-6.5-0.6-14-0.3-22.3 1.2v-3.3c10.4-1.7 19.5-1.8 27.4-0.5 10.3 1.6 18.6 5.7 25 11.4 6.4 5.8 10.8 13.3 13.4 22.2 4.5 15 3.9 33.9-1.3 54.2q0.1-0.1 0.4-0.2c3.2-0.9 7.7-1.6 13.9-1.8h0.2c6.5 0.2 11.1 1 14.5 2-5.2-20.3-5.9-39.2-1.3-54.3 2.7-8.8 7.1-16.3 13.4-22.1 6.3-5.7 14.7-9.8 24.9-11.4 7.9-1.3 16.9-1.2 27.3 0.5zm-62.7 92.2c-0.7-0.7-1.7-1.3-3.4-1.9-2.7-0.9-6.9-1.6-12.7-1.8-5.7 0.2-9.7 0.8-12.5 1.6q-2.7 1-3.7 1.9c-0.7 0.7-0.9 1.4-0.9 2.2q0 0.8 0.6 1.8c2 3.6 5.4 6.2 9.3 7.6 2.2 0.8 4.4 1.1 6.7 1.1 2.4 0.1 4.6-0.2 6.9-1 3.9-1.3 7.5-3.7 9.8-7.5q0.6-1.1 0.7-2c0-0.8-0.2-1.4-0.8-2z"/>
		</g>
	</g>
</svg>